<?xml version="1.0" encoding="utf-8"?>
<!-- Generator: Adobe Illustrator 24.1.2, SVG Export Plug-In . SVG Version: 6.00 Build 0)  -->
<svg version="1.1" xmlns="http://www.w3.org/2000/svg" xmlns:xlink="http://www.w3.org/1999/xlink" x="0px" y="0px"
     viewBox="0 0 80 80" style="enable-background:new 0 0 80 80;" xml:space="preserve">
<style type="text/css">
	.st0{display:none;}
	.st1{display:inline;fill:#484F58;}
	.st2{display:inline;fill:#C9D1D9;}
	.st3{display:inline;fill:#B1BAC4;}
	.st4{display:inline;fill:#8B949E;}
	.st5{display:inline;fill:#D2A8FF;}
	.st6{display:inline;fill:#6E7681;}
	.st7{display:none;fill:#FFE684;}
	.st8{fill:#6E7681;}
	.st9{fill:#B1BAC4;}
	.st10{fill:#F0F6FC;}
	.st11{fill:#C9D1D9;}
	.st12{fill:#FFA198;}
	.st13{fill:#8B949E;}
	.st14{fill:none;stroke:#B1BAC4;stroke-width:0.25;stroke-linecap:round;stroke-miterlimit:10;}
	.st15{fill:#FFE84D;stroke:#6E7681;stroke-width:0.25;stroke-miterlimit:10;}
	.st16{fill:#FDF5CC;}
	.st17{fill:#033A16;}
	.st18{fill:#2EA043;}
	.st19{fill:none;stroke:#484F58;stroke-width:0.25;stroke-linecap:round;stroke-linejoin:round;stroke-miterlimit:10;}
</style>
    <g id="Img" class="st0">
	<rect x="-64.25" y="88.48" class="st1" width="14.77" height="14.77"/>
        <rect x="-88.58" y="11.97" class="st2" width="14.44" height="16.5"/>
        <rect x="-89.77" y="35.91" class="st3" width="16.81" height="19.53"/>
        <rect x="-91.15" y="61.5" class="st4" width="17.01" height="15.03"/>
        <rect x="-88.98" y="-25.68" class="st5" width="11.67" height="9.89"/>
        <rect x="-44.08" y="-35.18" class="st5" width="14.44" height="14.44"/>
        <rect x="-34.58" y="-2.14" class="st5" width="7.52" height="19.13"/>
        <rect x="-91.19" y="83.7" class="st6" width="16.09" height="19.55"/>
</g>
    <g id="Background">
	<rect x="1" y="1" class="st7" width="78" height="78"/>
        <path class="st8" d="M77.5,40c0,14.67-8.42,27.37-20.69,33.53c-0.58,0.29-1.16,0.57-1.76,0.83c-1.39,0.61-2.82,1.14-4.29,1.58
		c-3.4,1.01-7.02,1.56-10.76,1.56c-3.63,0-7.13-0.51-10.44-1.47c-1.58-0.46-3.12-1.02-4.61-1.67c-0.62-0.27-1.22-0.56-1.82-0.86
		C10.89,67.32,2.5,54.64,2.5,40C2.5,19.29,19.29,2.5,40,2.5S77.5,19.29,77.5,40z"/>
</g>
    <g id="Cat">
	<g id="Body_1_">
		<path class="st9" d="M56.81,73.53c-0.58,0.29-1.16,0.57-1.76,0.83c-1.39,0.61-2.82,1.14-4.29,1.58c-3.4,1.01-7.02,1.56-10.76,1.56
			c-3.63,0-7.13-0.51-10.44-1.47c-1.58-0.46-3.12-1.02-4.61-1.67c-0.62-0.27-1.22-0.56-1.82-0.86c0,0,1.44-13.61,6.61-16.97
			c1.55-0.19,20.83,0.13,20.83,0.13S55.56,59.61,56.81,73.53z"/>
        <path class="st10" d="M50.76,75.94c-3.4,1.01-7.02,1.56-10.76,1.56c-3.63,0-7.13-0.51-10.44-1.47
			C31.25,53.33,49.3,55.62,50.76,75.94z"/>
	</g>
        <g id="Ears">
		<g id="Left">
			<path id="Right_3_" class="st11" d="M26.58,20.29c0,0-9.03-4.02-11.26-3.11c-0.47,0.11-0.7,0.36-0.9,0.79
				c-0.64,1.38-0.26,4.83,1.61,14.16L26.58,20.29z"/>
            <path class="st12" d="M25.78,20.86c0,0-6.62-3.11-9.38-2.76c-0.21,0.03-0.41,0.12-0.55,0.28c-1.46,1.7,0.1,7.62,0.96,12.72
				L25.78,20.86z"/>
		</g>
            <g id="Right_1_">
			<path id="Right" class="st11" d="M53.51,20.21c0,0,8.92-3.94,11.15-3.03c0.47,0.11,0.7,0.36,0.9,0.79
				c0.64,1.38,0.39,4.46-1.48,13.79L53.51,20.21z"/>
                <path class="st12" d="M54.41,20.72c0,0,6.93-3.22,9.47-2.56c1.85,1.34,0.36,6.52-0.54,11.88L54.41,20.72z"/>
		</g>
	</g>
        <g id="Head_1_">
		<path class="st11" d="M65,37.74c0,1.1-0.1,2.19-0.31,3.25c-0.25,1.31-0.65,2.59-1.18,3.81c-0.19,0.47-0.41,0.92-0.66,1.36
			c-0.36,0.69-0.76,1.35-1.22,1.98c-2.16,3.09-5.28,5.68-9,7.5c-3.72,1.81-8.03,2.85-12.65,2.85c-5.07,0-9.8-1.26-13.73-3.42
			c-3.43-1.88-6.28-4.44-8.25-7.46c-0.4-0.62-0.76-1.26-1.09-1.9c-0.23-0.45-0.45-0.92-0.63-1.4c-0.49-1.2-0.85-2.47-1.06-3.78
			C15.07,39.61,15,38.68,15,37.74c0-10.38,9.19-18.99,21.19-20.52l2.14-0.18c0.54-0.04,1.11-0.05,1.67-0.05
			c0.43,0,0.87,0.01,1.28,0.03c0.72,0.03,1.42,0.09,2.12,0.17h0.01C55.62,18.55,65,27.24,65,37.74z"/>
            <g>
			<path class="st13" d="M19.39,39.36L17.2,41.6l-0.91,2.71c-0.49-1.2-0.85-2.47-1.06-3.78l0.69-0.63L19.39,39.36z"/>
                <path class="st13" d="M20.5,44.56l-1.81,1.83l-0.67,1.22c-0.4-0.62-0.76-1.26-1.09-1.9l0.38-0.45L20.5,44.56z"/>
                <polygon class="st13" points="38.32,17.04 37.52,20.08 38.63,23.95 38.63,25.16 38.63,25.53 33.94,30.11 34.34,28.71
				35.37,25.05 35.37,19.58 36.19,17.22 			"/>
                <path class="st13" d="M45.68,30.11l-4.7-4.58v-1.58l1.11-3.87l-0.82-3.07c0.72,0.03,1.42,0.09,2.12,0.17h0.01l0.83,2.39v5.48
				l1.1,3.9L45.68,30.11z"/>
                <path class="st13" d="M64.69,40.99c-0.25,1.31-0.65,2.59-1.18,3.81l-0.41-0.38l-0.94-2.82l-2.19-2.24l3.47,0.53L64.69,40.99z"/>
                <path class="st13" d="M62.85,46.15c-0.36,0.69-0.76,1.35-1.22,1.98l-0.97-1.75l-1.8-1.83l3.2,0.69L62.85,46.15z"/>
		</g>
            <path class="st10" d="M52.64,55.63c-3.72,1.81-8.03,2.85-12.65,2.85c-5.07,0-9.8-1.26-13.73-3.42c-1.53-6.58,0.6-15.72,5.36-16.82
			c0-4.5,2.74-13.2,8.01-13.2c5.13,0,7.78,6.49,7.78,13.2C52.96,40.2,55.33,49.61,52.64,55.63z"/>
	</g>
        <g id="mustache">
		<path class="st14" d="M34.95,48.63c0,0-10.91,1.54-18.88,9.86"/>
            <path class="st14" d="M34.23,50.15c-6.66,2.81-11.84,7.73-15.92,14.21"/>
            <path class="st14" d="M45.07,48.63c6.69,1.06,13,4.21,18.86,9.86"/>
            <path class="st14" d="M45.71,50.15c6.22,2.69,11.47,7.44,15.79,14.21"/>
	</g>
        <g id="Eyes">
		<g id="Right_Eye">
			<path class="st15" d="M53.65,39.89c0,2.41-1.95,4.36-4.38,4.36c-2.41,0-4.36-1.95-4.36-4.36c0-0.62,0.13-1.2,0.36-1.73
				c0.45-1.06,1.33-1.9,2.41-2.32c0.49-0.21,1.04-0.31,1.59-0.31C51.7,35.52,53.65,37.48,53.65,39.89z"/>
            <path class="st16" d="M49.96,38.23l-2.42,2.3l-2.16-2.25c0.45-1.06,1.33-1.9,2.41-2.32L49.96,38.23z"/>
            <circle class="st17" cx="49.31" cy="39.96" r="2.98"/>
		</g>
            <g id="Left_Eye">
			<path class="st15" d="M35.09,39.89c0,2.41-1.95,4.36-4.38,4.36c-2.41,0-4.36-1.95-4.36-4.36c0-0.62,0.13-1.2,0.36-1.73
				c0.45-1.06,1.33-1.9,2.41-2.32c0.49-0.21,1.04-0.31,1.59-0.31C33.13,35.52,35.09,37.48,35.09,39.89z"/>
                <path class="st16" d="M31.4,38.23l-2.42,2.3l-2.16-2.25c0.45-1.06,1.33-1.9,2.41-2.32L31.4,38.23z"/>
                <circle class="st17" cx="30.74" cy="39.96" r="2.98"/>
		</g>
	</g>
        <g id="Glasses">
		<path id="Right_Glass" class="st18" d="M50.24,30.93c-4.65,0-8.43,3.78-8.43,8.43c0,4.66,3.78,8.44,8.43,8.44
			c4.66,0,8.44-3.78,8.44-8.44C58.68,34.71,54.9,30.93,50.24,30.93z M50.24,46.24c-3.79,0-6.87-3.08-6.87-6.89
			c0-3.79,3.08-6.87,6.87-6.87c3.81,0,6.87,3.08,6.87,6.87C57.11,43.16,54.05,46.24,50.24,46.24z"/>
            <path id="Left_Glass" class="st18" d="M29.75,30.93c-4.65,0-8.43,3.78-8.43,8.43c0,4.66,3.78,8.44,8.43,8.44
			c4.66,0,8.44-3.78,8.44-8.44C38.19,34.71,34.41,30.93,29.75,30.93z M29.75,46.24c-3.79,0-6.87-3.08-6.87-6.89
			c0-3.79,3.08-6.87,6.87-6.87c3.81,0,6.87,3.08,6.87,6.87C36.62,43.16,33.55,46.24,29.75,46.24z"/>
            <path class="st18" d="M35.2,32.93c3.07-1.38,6.19-1.53,9.39,0.18l-1.06,1.16c-2.59-1.04-4.96-1.15-7.06,0L35.2,32.93z"/>
	</g>
        <g id="Nose">
		<path class="st19" d="M37.49,51.4c3.19,0.51,2.6-1.98,2.6-1.98s0.08,2.59,2.08,2.37"/>
            <path class="st12" d="M42.51,48.35l-2.42,1.06l-2.55-0.91c0.39-1.01,1.37-1.73,2.51-1.73C41.14,46.77,42.08,47.42,42.51,48.35z"/>
	</g>
        <g>
		<g>
			<path class="st18" d="M42.75,58.63l5.52-2.47c1.14-0.51,2.43,0.34,2.43,1.62v6.16c0,1.3-1.3,2.18-2.48,1.68l-5.41-2.32
				c-0.23-0.1-0.38-0.32-0.38-0.57v-3.61C42.43,58.91,42.56,58.72,42.75,58.63z"/>
            <path class="st18" d="M37.25,58.63l-5.52-2.47c-1.14-0.51-2.43,0.34-2.43,1.62v6.16c0,1.3,1.3,2.18,2.48,1.68l5.41-2.32
				c0.23-0.1,0.38-0.32,0.38-0.57v-3.61C37.57,58.91,37.44,58.72,37.25,58.63z"/>
            <path class="st18" d="M41.45,63.46h-2.9c-0.54,0-0.98-0.44-0.98-0.98v-2.9c0-0.54,0.44-0.98,0.98-0.98h2.9
				c0.54,0,0.98,0.44,0.98,0.98v2.9C42.43,63.02,41.99,63.46,41.45,63.46z"/>
		</g>
	</g>
</g>
</svg>